<?xml version="1.0" encoding="utf-8"?>
<!-- Generator: Adobe Illustrator 26.0.2, SVG Export Plug-In . SVG Version: 6.00 Build 0)  -->
<svg version="1.1" id="Outline" xmlns="http://www.w3.org/2000/svg" xmlns:xlink="http://www.w3.org/1999/xlink" x="0px" y="0px"
	 viewBox="0 0 512 512" style="enable-background:new 0 0 512 512;" xml:space="preserve">
<style type="text/css">
	.st0{fill:#EEF0F2;}
</style>
<g>
	<path class="st0" d="M469.7,135.3H42.3C19,135.3,0,116.4,0,93v0c0-23.4,19-42.3,42.3-42.3h427.3c23.4,0,42.3,19,42.3,42.3v0
		C512,116.4,493,135.3,469.7,135.3z"/>
	<path class="st0" d="M469.7,298.3H42.3C19,298.3,0,279.4,0,256v0c0-23.4,19-42.3,42.3-42.3h427.3c23.4,0,42.3,19,42.3,42.3v0
		C512,279.4,493,298.3,469.7,298.3z"/>
	<path class="st0" d="M469.7,461.3H42.3C19,461.3,0,442.4,0,419v0c0-23.4,19-42.3,42.3-42.3h427.3c23.4,0,42.3,19,42.3,42.3v0
		C512,442.4,493,461.3,469.7,461.3z"/>
</g>
</svg>
