<?xml version="1.0" encoding="utf-8"?>
<!-- Generator: Adobe Illustrator 26.0.2, SVG Export Plug-In . SVG Version: 6.00 Build 0)  -->
<svg version="1.1" id="Outline" xmlns="http://www.w3.org/2000/svg" xmlns:xlink="http://www.w3.org/1999/xlink" x="0px" y="0px"
	 viewBox="0 0 608.3 512" style="enable-background:new 0 0 608.3 512;" xml:space="preserve">
<style type="text/css">
	.st0{fill:#EEF0F2;}
</style>
<image style="overflow:visible;" width="250" height="146" xlink:href="66E3E34F.jpg"  transform="matrix(1 0 0 1 -292.4178 -73)">
</image>
<path class="st0" d="M211.9,121.4H39.3c-20.7,0-37.5-16.8-37.5-37.5v0c0-20.7,16.8-37.5,37.5-37.5h172.6c20.7,0,37.5,16.8,37.5,37.5
	v0C249.4,104.6,232.6,121.4,211.9,121.4z"/>
<path class="st0" d="M570.8,465.6H301.5c-20.7,0-37.5-16.8-37.5-37.5v0c0-20.7,16.8-37.5,37.5-37.5h269.3
	c20.7,0,37.5,16.8,37.5,37.5v0C608.3,448.8,591.5,465.6,570.8,465.6z"/>
<path class="st0" d="M570.8,293.5H39.3c-20.7,0-37.5-16.8-37.5-37.5v0c0-20.7,16.8-37.5,37.5-37.5h531.5c20.7,0,37.5,16.8,37.5,37.5
	v0C608.3,276.7,591.5,293.5,570.8,293.5z"/>
</svg>
