<?xml version="1.0" encoding="utf-8"?>
<!-- Generator: Adobe Illustrator 26.0.2, SVG Export Plug-In . SVG Version: 6.00 Build 0)  -->
<svg version="1.1" id="Outline" xmlns="http://www.w3.org/2000/svg" xmlns:xlink="http://www.w3.org/1999/xlink" x="0px" y="0px"
	 viewBox="0 0 512 512" style="enable-background:new 0 0 512 512;" xml:space="preserve">
<style type="text/css">
	.st0{fill:#EEF0F2;}
</style>
<path class="st0" d="M366.3,512c-5.7,0-11.1-2.2-15.1-6.2L176.9,331.5c-41.7-41.6-41.8-109.1-0.2-150.8c0.1-0.1,0.1-0.1,0.2-0.2
	L351.1,6.2c8.4-8.4,21.9-8.4,30.3,0c8.4,8.4,8.4,21.9,0,30.3L207.1,210.8c-25,25-25,65.5,0,90.5l174.3,174.3
	c8.4,8.3,8.4,21.8,0.1,30.2c0,0-0.1,0.1-0.1,0.1C377.4,509.8,372,512,366.3,512z"/>
</svg>
