<?xml version="1.0" encoding="utf-8"?>
<!-- Generator: Adobe Illustrator 26.0.2, SVG Export Plug-In . SVG Version: 6.00 Build 0)  -->
<svg version="1.1" id="Outline" xmlns="http://www.w3.org/2000/svg" xmlns:xlink="http://www.w3.org/1999/xlink" x="0px" y="0px"
	 viewBox="0 0 512 512" style="enable-background:new 0 0 512 512;" xml:space="preserve">
<style type="text/css">
	.st0{fill:#EEF0F2;}
</style>
<path class="st0" d="M505.7,6.3L505.7,6.3c-8.3-8.3-21.8-8.3-30.2,0L256,225.8L36.4,6.3c-8.3-8.3-21.8-8.3-30.2,0l0,0
	c-8.3,8.3-8.3,21.8,0,30.2L225.8,256L6.3,475.6c-8.3,8.3-8.3,21.8,0,30.2l0,0c8.3,8.3,21.8,8.3,30.2,0L256,286.2l219.6,219.6
	c8.3,8.3,21.8,8.3,30.2,0l0,0c8.3-8.3,8.3-21.8,0-30.2L286.2,256L505.7,36.4C514.1,28.1,514.1,14.6,505.7,6.3z"/>
</svg>
