<?xml version="1.0" encoding="utf-8"?>
<!-- Generator: Adobe Illustrator 26.0.2, SVG Export Plug-In . SVG Version: 6.00 Build 0)  -->
<svg version="1.1" id="Capa_1" xmlns="http://www.w3.org/2000/svg" xmlns:xlink="http://www.w3.org/1999/xlink" x="0px" y="0px"
	 viewBox="0 0 3227 695" style="enable-background:new 0 0 3227 695;" xml:space="preserve">
<style type="text/css">
	.st0{fill:#EEF0F2;}
</style>
<g>
	<path class="st0" d="M375.1,153.2c-26.7,54.2-35,124.3-42.5,191c-24.2,219.4-76.7,315.3-183.5,315.3
		c-97.6,0-120.9-83.4-107.6-159.3l78.4-3.3c-8.3,42.5-12.5,114.3,25,114.3c41.7,0,62.6-75.1,85.1-258.6c10-91.7,27.5-158.5,55-206.8
		c-35-7.5-68.4-16.7-100.9-16.7c-40.9,0-70.1,20.9-75.9,56.7c-10,56.7,42.5,57.5,42.5,57.5L109,295c0,0-98.4-5.8-81.7-99.3
		c10-58.4,64.2-121.8,140.1-121.8c49.2,0,100.1,20,148.5,29.2c37.5-39.2,86.7-60.1,153.5-69.2L491,94
		C491,94,443.5,146.5,375.1,153.2z"/>
	<path class="st0" d="M687.8,395l19.2,8.3c-32.5,81.7-80.9,130.9-126.8,149.3c-35.9,70.9-81.7,109.3-124.3,109.3
		c-65.9,0-106.8-76.7-80.9-221c21.7-124.3,72.6-211.8,104.3-211.8c12.5,0,25.9,9.2,33.4,17.5c21.7-29.2,45-47.5,61.7-47.5
		c55.9,0,74.2,88.4,55,197.7c-6.7,38.4-15.8,74.2-26.7,105.1C632,485.1,662,450.9,687.8,395z M495.2,547.7
		c-25.9-16.7-43.4-51.7-45-101.8c-13.3,78.4-5,132.6,15.8,132.6C476,578.5,485.2,566.9,495.2,547.7z M483.5,390.9
		c-9.2,49.2,5,88.4,30.9,108.4c5.8-19.2,10.8-40,15.8-62.6c16.7-79.2,17.5-144.3,2.5-145.1C518.5,290.8,493.5,330,483.5,390.9z"/>
	<path class="st0" d="M1130.7,395l19.2,8.3c-46.7,120.9-117.6,257.7-171.8,257.7c-40,0-55-48.4-45.9-102.6
		c15-86.7,79.2-259.4,48.4-259.4c-25.9,0-94.2,206-108.4,337.8H772.1c28.4-85.1,96.8-337.8,65.1-337.8c-25.9,0-93.4,206-107.6,337.8
		H629.5c48.4-183.5,67.6-324.4,73.4-408.7l99.3-1.7c-13.3,40.9-25.9,107.6-35.9,158.5c29.2-105.9,79.2-186.8,129.3-186.8
		c39.2,0,45.9,76.7,15,186c29.2-105.9,78.4-186,128.4-186c39.2,0,57.5,32.5,45.9,99.3c-13.3,79.2-84.2,249.4-48.4,249.4
		C1057.3,546.8,1103.2,453.4,1130.7,395z"/>
	<path class="st0" d="M1444.3,395l19.2,8.3c-46.7,120.9-116.8,257.7-171,257.7c-32.5,0-48.4-30.9-48.4-70.9
		c-23.4,42.5-53.4,70.9-89.2,70.9c-45,0-64.2-88.4-45-197.7c30-167.6,100.1-264.4,151.8-264.4c33.4,0,45,33.4,48.4,77.6
		c5.8-19.2,11.7-35,17.5-46.7h81.7c-25,97.6-89.2,316.9-58.4,316.9C1371.8,546.8,1417.6,453.4,1444.3,395z M1263.3,297.5
		c-15-0.8-39.2,59.2-55,133.4c-15.8,75.1-16.7,136.8-1.7,137.6s39.2-59.2,55-133.4C1277.5,360,1278.3,298.3,1263.3,297.5z
		 M1335.9,28.9l47.5,40l-90.1,92.6L1255,134L1335.9,28.9z"/>
	<path class="st0" d="M1613.6,519.3c-20,115.1-117.6,141.8-156.8,141.8c-60.9,0-86.7-54.2-80.1-91.7c6.7-36.7,85.9-95.9,80.9-72.6
		c-12.5,50.9-16.7,105.1,11.7,105.1c15.8,0,33.4-27.5,40.9-70.9c13.3-76.7-8.3-137.6-15.8-204.3c-18.3,50-35.9,95.1-46.7,119.3
		l-20-12.5c27.5-65.1,53.4-132.6,66.7-193.5l1.7-7.5c12.5-70.9,50.9-103.4,50.9-103.4l73.4,13.3c0,0-26.7,40.9-34.2,85.1
		C1570.3,317.5,1632.8,414.2,1613.6,519.3z"/>
	<path class="st0" d="M2250.8,335.8c-34.2,194.3-151,331.9-254.4,331.9c-32.5,0-52.5-12.5-65.9-25.9c-44.2,19.2-84.2,20-84.2,20
		l50-110.9c11.7,15,22.5,25.9,31.7,34.2c56.7-127.6,36.7-370.3,120.1-464.6l71.7,11.7c-56.7,129.3-51.7,279.4-78.4,382
		c-10.8,43.4-31.7,74.2-57.5,95.1c2.5,0.8,4.2,0.8,5.8,0.8c69.2,0,124.3-130.1,147.6-265.2c35.9-204.3,17.5-279.4-29.2-279.4
		c-80.1,0-148.5,131.8-165.1,226c0,0-62.6-5-56.7-39.2c21.7-125.1,126.8-228.5,241-228.5C2225.8,23.9,2288.4,123.1,2250.8,335.8z"/>
	<path class="st0" d="M2568.6,395l20,8.3c-41.7,107.6-115.9,267.7-216,267.7c-59.2,0-133.4-63.4-105.1-224.4
		c25.9-147.6,103.4-247.7,171.8-247.7c75.9,0,108.4,70.9,78.4,181c-27.5,97.6-95.1,162.6-156.8,154.3c6.7,34.2,23.4,53.4,48.4,53.4
		C2467.7,587.7,2519.4,505.1,2568.6,395z M2362.6,445.1c-2.5,13.3-4.2,26.7-5,38.4c22.5-11.7,50.9-51.7,69.2-120.1
		c10.8-39.2,15-74.2,0.8-74.2C2406.8,289.1,2377.6,360,2362.6,445.1z"/>
	<path class="st0" d="M2883,395l19.2,8.3c-46.7,120.9-116.8,257.7-171,257.7c-32.5,0-48.4-30.9-48.4-70.9
		c-23.4,42.5-53.4,70.9-89.2,70.9c-45,0-64.2-88.4-45-197.7c30-167.6,100.1-264.4,151.8-264.4c33.4,0,45,33.4,48.4,77.6
		c5.8-19.2,11.7-35,17.5-46.7h81.7c-25,97.6-89.2,316.9-58.4,316.9C2810.5,546.8,2856.3,453.4,2883,395z M2702,297.5
		c-15-0.8-39.2,59.2-55,133.4c-15.8,75.1-16.7,136.8-1.7,137.6s39.2-59.2,55-133.4C2716.2,360,2717,298.3,2702,297.5z"/>
	<path class="st0" d="M3181.6,395l20,8.3c-46.7,120.9-117.6,257.7-171.8,257.7c-40,0-55-48.4-45.9-102.6
		c15-86.7,79.2-259.4,48.4-259.4c-25.9,0-93.4,206-107.6,337.8h-100.1c48.4-183.5,67.6-324.4,73.4-408.7l99.3-1.7
		c-13.3,40.9-25.9,107.6-35.9,158.5c29.2-105.9,79.2-186.8,129.3-186.8c39.2,0,57.5,32.5,45.9,99.3
		c-13.3,79.2-84.2,249.4-48.4,249.4C3109,546.8,3154.9,453.4,3181.6,395z"/>
</g>
<text transform="matrix(1 0 0 1 -3865.946 -1297.1697)" class="st0" style="font-family:'Hamster'; font-size:834.0513px;">Tomás Dean</text>
</svg>
