<?xml version="1.0" encoding="utf-8"?>
<!-- Generator: Adobe Illustrator 26.0.2, SVG Export Plug-In . SVG Version: 6.00 Build 0)  -->
<svg version="1.1" id="Capa_1" xmlns="http://www.w3.org/2000/svg" xmlns:xlink="http://www.w3.org/1999/xlink" x="0px" y="0px"
	 viewBox="0 0 1920 1080" style="enable-background:new 0 0 1920 1080;" xml:space="preserve">
<style type="text/css">
	.st0{fill:#ECEBE4;}
	.st1{opacity:0.71;}
	.st2{opacity:0.1;enable-background:new    ;}
	.st3{font-family:'Poppins-Black';}
	.st4{font-size:448.0625px;}
	.st5{fill:#5B5B5B;}
	.st6{font-family:'Poppins-BoldItalic';}
	.st7{font-size:165.1227px;}
</style>
<g id="Capa_2_00000008864905009996059170000017844804934760720018_">
	<rect class="st0" width="1920" height="1080"/>
</g>
<g id="Capa_3">
	<g class="st1">
		<text transform="matrix(0.7071 -0.7071 0.7071 0.7071 -206.2875 839.7515)" class="st2 st3 st4">ID</text>
		<text transform="matrix(0.7071 -0.7071 0.7071 0.7071 181.7877 451.6763)" class="st2 st3 st4">ID</text>
		<text transform="matrix(0.7071 -0.7071 0.7071 0.7071 593.147 40.317)" class="st2 st3 st4">ID</text>
		<text transform="matrix(0.7071 -0.7071 0.7071 0.7071 117.7706 1163.8096)" class="st2 st3 st4">ID</text>
		<text transform="matrix(0.7071 -0.7071 0.7071 0.7071 505.8458 775.7344)" class="st2 st3 st4">ID</text>
		<text transform="matrix(0.7071 -0.7071 0.7071 0.7071 917.2051 364.3751)" class="st2 st3 st4">ID</text>
		<text transform="matrix(0.7071 -0.7071 0.7071 0.7071 438.7759 1484.8149)" class="st2 st3 st4">ID</text>
		<text transform="matrix(0.7071 -0.7071 0.7071 0.7071 826.8521 1096.7397)" class="st2 st3 st4">ID</text>
		<text transform="matrix(0.7071 -0.7071 0.7071 0.7071 1238.2114 685.3804)" class="st2 st3 st4">ID</text>
		<text transform="matrix(0.7071 -0.7071 0.7071 0.7071 1644.5337 279.0582)" class="st2 st3 st4">ID</text>
		<text transform="matrix(0.7071 -0.7071 0.7071 0.7071 1186.5457 1456.4331)" class="st2 st3 st4">ID</text>
		<text transform="matrix(0.7071 -0.7071 0.7071 0.7071 1597.905 1045.0737)" class="st2 st3 st4">ID</text>
		<text transform="matrix(0.7071 -0.7071 0.7071 0.7071 1988.3894 654.5894)" class="st2 st3 st4">ID</text>
	</g>
</g>
<g id="Capa_1_00000137130875603250957530000007908642400094660236_">
	<g transform="translate(0.000000,512.000000) scale(0.100000,-0.100000)">
		<path class="st5" d="M9407.7,3547.9c-632.6-65.6-1187-409.6-1523.9-945.8c-477.6-760-387.5-1769,216.7-2426.2
			c336.1-365.3,752-582.8,1251.8-654c94.1-13.4,404.9-12.7,502.2,0.8c491.9,68,907.8,284.7,1243.1,648.5
			c276,298.9,452.3,680.9,514,1111.9c13.4,93.3,13.4,404.9,0,498.2c-46.7,329-151,608.1-324.2,869.1
			c-72.8,110.7-146.3,200.9-249.1,304.5c-315.5,319.5-706.2,516.4-1156.1,582.8C9784.9,3551.9,9504.1,3558.2,9407.7,3547.9z
			 M9229.7,2568.1c34.8-70.4,41.9-79.1,57.7-75.1c116.2,25.3,514,25.3,627.9,0c15.8-4,22.1,4.7,57.7,75.1l40.3,79.9l29.3-4.7
			c126.5-20.6,358.2-90.2,502.2-150.3c68-28.5,70.4-30.8,107.5-86.2c125.7-185.8,249.1-450,313.9-673
			c32.4-111.5,69.6-290.2,83.8-407.3c11.1-89.4,14.2-467.4,4-514c-4.7-25.3-15.8-34.8-102.8-91.7c-176.3-117-336.1-196.9-529-267.3
			c-55.4-19.8-104.4-36.4-107.5-36.4c-12.7,0-159.7,234.9-159.7,254.6c0,2.4,16.6,10.3,38,18.2c54.6,20.6,189,89.4,196.1,99.6
			c5.5,8.7-33.2,45.9-48.2,46.7c-4.7,0-37.2-11.9-72-26.9c-211.1-88.6-426.2-132.1-662.7-132.1c-257,0-441.3,38.7-721.2,151.8
			c-22.1,8.7-27.7,7.9-49.8-7.9c-13.4-9.5-24.5-22.1-24.5-27.7s53.8-35.6,118.6-67.2l119.4-57.7l-29.3-52.2
			C8979.1,543.5,8896,417,8888.1,417c-15,0-208,73.5-289.4,110.7c-186.6,83.8-440.5,240.4-450.8,276.8c-11.9,42.7-5.5,443.6,8.7,548
			c25.3,189,69.6,367.7,136.8,551.2c36.4,99.6,171.6,371.7,234.1,470.5c49,77.5,51.4,79.9,109.1,108.3
			c79.9,39.5,276.8,104.4,413.6,136.8c61.7,15,118.6,26.9,125.7,26.9C9186.2,2647.2,9202,2624.3,9229.7,2568.1z"/>
		<path class="st5" d="M9025.7,1697.5c-181.9-72-228.5-349.5-83.8-494.2c49-49.8,90.9-68,162.1-72.8c53-3.2,65.6-0.8,107.5,18.2
			c214.3,95.7,223,433.4,15,539.3C9170.4,1716.4,9084.2,1721.2,9025.7,1697.5z"/>
		<path class="st5" d="M9997.6,1697.5c-113.9-45.1-190.6-193.7-167.6-324.2c11.9-67.2,41.1-126.5,82.2-168.4
			c51.4-51.4,92.5-69.6,164.5-74.3c53-3.2,65.6-0.8,109.1,18.2c82.2,37.2,140.8,117,159.7,219.8c23.7,127.3-36.4,259.4-143.9,317.9
			C10143.9,1717.2,10060.1,1722,9997.6,1697.5z"/>
	</g>
	<text transform="matrix(1 0 0 1 210.7649 823.2357)" class="st5 st6 st7">Tomiiidean#4158</text>
</g>
</svg>
