<?xml version="1.0" encoding="utf-8"?>
<!-- Generator: Adobe Illustrator 26.0.2, SVG Export Plug-In . SVG Version: 6.00 Build 0)  -->
<svg version="1.1" id="Capa_1" xmlns="http://www.w3.org/2000/svg" xmlns:xlink="http://www.w3.org/1999/xlink" x="0px" y="0px"
	 viewBox="0 0 512 512" style="enable-background:new 0 0 512 512;" xml:space="preserve">
<style type="text/css">
	.st0{fill:#5B5B5B;}
</style>
<g transform="translate(0.000000,512.000000) scale(0.100000,-0.100000)">
	<path class="st0" d="M2315,5109c-800-83-1501-518-1927-1196c-604-961-490-2237,274-3068c425-462,951-737,1583-827
		c119-17,512-16,635,1c622,86,1148,360,1572,820c349,378,572,861,650,1406c17,118,17,512,0,630c-59,416-191,769-410,1099
		c-92,140-185,254-315,385c-399,404-893,653-1462,737C2792,5114,2437,5122,2315,5109z M2090,3870c44-89,53-100,73-95
		c147,32,650,32,794,0c20-5,28,6,73,95l51,101l37-6c160-26,453-114,635-190c86-36,89-39,136-109c159-235,315-569,397-851
		c41-141,88-367,106-515c14-113,18-591,5-650c-6-32-20-44-130-116c-223-148-425-249-669-338c-70-25-132-46-136-46
		c-16,0-202,297-202,322c0,3,21,13,48,23c69,26,239,113,248,126c7,11-42,58-61,59c-6,0-47-15-91-34c-267-112-539-167-838-167
		c-325,0-558,49-912,192c-28,11-35,10-63-10c-17-12-31-28-31-35s68-45,150-85l151-73l-37-66c-51-92-156-252-166-252
		c-19,0-263,93-366,140c-236,106-557,304-570,350c-15,54-7,561,11,693c32,239,88,465,173,697c46,126,217,470,296,595
		c62,98,65,101,138,137c101,50,350,132,523,173c78,19,150,34,159,34C2035,3970,2055,3941,2090,3870z"/>
	<path class="st0" d="M1832,2769c-230-91-289-442-106-625c62-63,115-86,205-92c67-4,83-1,136,23c271,121,282,548,19,682
		C2015,2793,1906,2799,1832,2769z"/>
	<path class="st0" d="M3061,2769c-144-57-241-245-212-410c15-85,52-160,104-213c65-65,117-88,208-94c67-4,83-1,138,23
		c104,47,178,148,202,278c30,161-46,328-182,402C3246,2794,3140,2800,3061,2769z"/>
</g>
</svg>
