<?xml version="1.0" encoding="utf-8"?>
<!-- Generator: Adobe Illustrator 26.0.2, SVG Export Plug-In . SVG Version: 6.00 Build 0)  -->
<svg version="1.1" id="Capa_1" xmlns="http://www.w3.org/2000/svg" xmlns:xlink="http://www.w3.org/1999/xlink" x="0px" y="0px"
	 viewBox="0 0 512 512" style="enable-background:new 0 0 512 512;" xml:space="preserve">
<style type="text/css">
	.st0{fill:#5B5B5B;}
</style>
<g transform="translate(0.000000,512.000000) scale(0.100000,-0.100000)">
	<path class="st0" d="M2321,5110c-497-48-990-251-1376-565c-114-92-294-274-384-387c-229-287-417-675-495-1023
		c-49-218-60-325-60-575s11-357,60-575c79-355,272-749,509-1040c92-114,274-294,387-384c287-229,675-417,1023-495
		c218-49,325-60,575-60s357,11,575,60c261,58,603,204,828,353c389,259,688,599,893,1016c125,255,196,484,241,775
		c24,161,24,539,0,700c-45,291-116,520-241,775c-134,272-283,480-498,692c-211,209-404,346-673,478c-252,124-486,197-765,240
		C2794,5114,2452,5122,2321,5110z M3708,3695c-46-46-1146-904-1155-900c-10,3-1149,871-1177,896c-6,5,514,9,1164,9
		C3185,3700,3711,3698,3708,3695z M3830,2380v-960H2540H1250v945v946l298-226c963-730,913-694,974-706c51-10,60-9,100,11
		c23,12,304,230,623,485s581,464,583,464C3829,3340,3830,2908,3830,2380z"/>
</g>
</svg>
