<?xml version="1.0" encoding="utf-8"?>
<!-- Generator: Adobe Illustrator 26.0.2, SVG Export Plug-In . SVG Version: 6.00 Build 0)  -->
<svg version="1.1" id="Capa_1" xmlns="http://www.w3.org/2000/svg" xmlns:xlink="http://www.w3.org/1999/xlink" x="0px" y="0px"
	 viewBox="0 0 512 512" style="enable-background:new 0 0 512 512;" xml:space="preserve">
<style type="text/css">
	.st0{fill:#5B5B5B;}
</style>
<g transform="translate(0.000000,512.000000) scale(0.100000,-0.100000)">
	<path class="st0" d="M2315,5109c-800-83-1501-518-1927-1196c-487-774-516-1777-75-2578c200-364,487-676,841-913
		c238-159,600-311,876-366c214-43,295-51,530-51c236,0,333,10,532,51c879,183,1616,843,1897,1699c93,282,126,493,126,805
		c0,301-32,513-116,775c-124,390-330,728-622,1024c-399,404-893,653-1462,737C2792,5114,2437,5122,2315,5109z M3090,3850
		c165-11,271-35,375-85c196-95,312-254,367-505c22-103,22-118,22-700s0-597-22-700c-55-251-171-410-367-505c-175-84-351-100-1040-92
		c-502,6-551,10-693,60c-104,36-177,82-252,158c-78,79-123,151-161,261c-50,147-54,212-54,833c0,498,3,582,18,663
		c41,221,139,382,293,482c121,79,249,117,434,130C2181,3861,2923,3861,3090,3850z"/>
	<path class="st0" d="M2100,3620c-85-4-186-15-223-24c-190-45-307-160-352-348c-45-185-45-1191,0-1376s162-303,347-347
		c185-45,1191-45,1376,0c184,44,303,163,347,347c45,185,45,1191,0,1376c-44,184-163,303-347,347C3123,3625,2504,3638,2100,3620z
		 M3338,3383c49-37,67-71,67-128c0-116-116-189-221-139c-61,29-97,109-80,178c8,34,54,86,91,102C3234,3414,3305,3408,3338,3383z
		 M2759,3195c209-67,368-226,438-440c22-67,26-98,26-195s-4-128-26-195c-71-215-227-371-442-442c-67-22-98-26-195-26
		c-134,0-229,26-339,90c-84,49-186,152-234,233c-65,112-90,206-90,340c0,97,4,128,26,195c67,205,216,360,414,432
		C2471,3236,2621,3238,2759,3195z"/>
	<path class="st0" d="M2426,2970c-274-87-385-427-216-663c169-235,531-235,700,0c137,192,93,467-97,603
		C2705,2987,2553,3011,2426,2970z"/>
</g>
</svg>
