<?xml version="1.0" encoding="utf-8"?>
<!-- Generator: Adobe Illustrator 26.0.2, SVG Export Plug-In . SVG Version: 6.00 Build 0)  -->
<svg version="1.1" id="Capa_1" xmlns="http://www.w3.org/2000/svg" xmlns:xlink="http://www.w3.org/1999/xlink" x="0px" y="0px"
	 viewBox="0 0 512 512" style="enable-background:new 0 0 512 512;" xml:space="preserve">
<style type="text/css">
	.st0{fill:#5B5B5B;}
</style>
<g transform="translate(0.000000,512.000000) scale(0.100000,-0.100000)">
	<path class="st0" d="M2315,5109c-800-83-1501-518-1927-1196c-604-960-491-2229,272-3065c423-463,951-740,1585-830
		c118-17,511-16,635,0c579,80,1097,337,1491,739c130,132,157,163,243,277c256,341,423,757,488,1211c17,118,17,512,0,630
		c-43,303-122,561-247,814c-134,268-270,459-483,674c-395,400-889,649-1457,733C2792,5114,2437,5122,2315,5109z M1655,4004
		c71-25,156-111,180-184c58-170-20-349-179-409c-187-70-377-12-462,141c-27,49-29,61-29,153c0,84,4,107,22,141
		c47,88,116,144,212,171C1458,4034,1589,4027,1655,4004z M3555,3145c101-28,213-92,285-165c77-78,123-153,162-262
		c55-157,58-195,58-859v-609h-310h-310v548c0,432-3,561-14,613c-26,122-75,192-164,236c-79,39-191,40-272,2c-72-34-132-96-172-177
		l-33-67l-3-577l-3-578h-310h-309v940v940h310h310v-132l1-133l25,30c14,17,43,51,64,77c73,86,217,165,345,188
		C3286,3173,3484,3164,3555,3145z M1818,2188l2-938h-315h-315v933c0,514,3,937,7,940c4,4,144,6,312,5l306-3L1818,2188z"/>
</g>
</svg>
