<?xml version="1.0" encoding="utf-8"?>
<!-- Generator: Adobe Illustrator 26.0.2, SVG Export Plug-In . SVG Version: 6.00 Build 0)  -->
<svg version="1.1" id="Capa_1" xmlns="http://www.w3.org/2000/svg" xmlns:xlink="http://www.w3.org/1999/xlink" x="0px" y="0px"
	 viewBox="0 0 512 512" style="enable-background:new 0 0 512 512;" xml:space="preserve">
<style type="text/css">
	.st0{fill:#5B5B5B;}
</style>
<g transform="translate(0.000000,512.000000) scale(0.100000,-0.100000)">
	<path class="st0" d="M2315,5109c-800-83-1501-518-1927-1196c-487-774-516-1777-75-2578c200-364,487-676,841-913
		c238-159,600-311,876-366c214-43,295-51,530-51c236,0,333,10,532,51c879,183,1616,843,1897,1699c93,282,126,493,126,805
		c0,301-32,513-116,775c-124,390-330,728-622,1024c-399,404-893,653-1462,737C2792,5114,2437,5122,2315,5109z M3700,3023v-728
		l-307-307l-308-308h-235h-235l-155-155l-155-155h-157h-158v155v155h-285h-285v832v832l76,203l77,203h1063h1064V3023z"/>
	<path class="st0" d="M1780,2795v-755h235h235v-152v-153l153,153l152,152h285h285l183,183l182,182v573v572h-855h-855V2795z
		 M2560,2820v-310h-105h-105v310v310h105h105V2820z M3130,2820v-310h-105h-105v310v310h105h105V2820z"/>
</g>
</svg>
