<?xml version="1.0" encoding="utf-8"?>
<!-- Generator: Adobe Illustrator 26.0.2, SVG Export Plug-In . SVG Version: 6.00 Build 0)  -->
<svg version="1.1" id="Capa_1" xmlns="http://www.w3.org/2000/svg" xmlns:xlink="http://www.w3.org/1999/xlink" x="0px" y="0px"
	 viewBox="0 0 512 512" style="enable-background:new 0 0 512 512;" xml:space="preserve">
<style type="text/css">
	.st0{fill:#5B5B5B;}
</style>
<g transform="translate(0.000000,512.000000) scale(0.100000,-0.100000)">
	<path class="st0" d="M2370,5113c-371-35-653-114-961-269c-245-122-444-268-655-478c-224-225-366-423-500-701
		C96,3339,17,3015,3,2645c-15-426,73-832,263-1214c133-269,271-459,488-677c221-220,412-357,681-489c188-92,309-137,500-185
		c500-126,1002-102,1490,71c149,53,407,182,540,271c365,243,667,578,866,963c181,348,271,694,286,1090c15,426-73,832-263,1214
		c-124,250-263,447-458,648c-216,224-428,378-711,518c-296,146-572,225-900,255C2683,5119,2452,5121,2370,5113z M3298,3694
		c77-25,153-70,213-122l35-31l70,18c83,22,193,65,252,98c23,14,42,20,42,14c0-22-59-128-99-179c-23-29-64-69-92-89
		c-27-21-45-39-40-41c16-5,211,45,264,67l48,21l-18-31c-25-44-183-209-231-242l-39-28l-6-152c-10-249-64-457-182-692
		c-240-478-668-799-1178-884c-378-63-722-15-1052,149c-180,89-180,85,2,86c134,1,172,5,254,27c161,42,310,110,417,191l34,24l-49,7
		c-71,9-171,42-233,78c-74,42-178,149-216,222c-56,106-60,100,64,100c146,0,166,10,82,38c-36,12-87,35-115,51
		c-70,41-174,150-213,223c-35,66-72,195-72,251c0,29,3,33,18,26c49-21,152-52,193-57l45-6l-76,77c-121,123-174,253-173,422
		c1,93,12,147,49,230l25,55l127-125c239-236,525-391,837-454c79-16,243-35,249-29c2,2-1,27-6,56c-18,108,15,267,78,374
		c82,141,253,258,411,283C3101,3733,3214,3722,3298,3694z"/>
</g>
</svg>
