<?xml version="1.0" encoding="utf-8"?>
<!-- Generator: Adobe Illustrator 26.0.2, SVG Export Plug-In . SVG Version: 6.00 Build 0)  -->
<svg version="1.1" id="Capa_1" xmlns="http://www.w3.org/2000/svg" xmlns:xlink="http://www.w3.org/1999/xlink" x="0px" y="0px"
	 viewBox="0 0 512 512" style="enable-background:new 0 0 512 512;" xml:space="preserve">
<style type="text/css">
	.st0{fill:#5B5B5B;}
</style>
<g transform="translate(0.000000,512.000000) scale(0.100000,-0.100000)">
	<path class="st0" d="M2321,5110C981,4980-40,3827,3,2490c13-389,97-726,268-1069C520,919,918,521,1421,271
		c815-406,1779-350,2539,147c297,194,579,482,771,788c74,116,184,342,234,478c51,138,110,376,131,531c23,157,26,521,6,660
		c-59,415-191,769-410,1099c-92,140-185,254-315,385c-399,403-895,653-1462,737C2793,5114,2449,5122,2321,5110z M2830,3811
		c437-101,781-405,928-821c53-152,67-237,66-420c0-141-4-181-26-276c-117-501-500-871-1006-971c-59-11-136-17-237-17
		c-179,0-302,23-462,86l-102,41l-323-77c-178-42-329-76-335-76c-7,0-19,10-27,23c-13,20-8,53,54,354l69,332l-40,97
		c-67,160-93,290-93,479c-1,229,34,378,135,581c169,339,503,594,874,667c125,25,131,26,290,22C2697,3832,2772,3825,2830,3811z"/>
	<path class="st0" d="M2383,3546c-324-62-611-290-733-583c-61-147-74-212-74-393c-1-196,15-272,94-437l48-101l-39-188
		c-22-104-38-193-37-199c2-7,70,4,195,34l192,44l98-46c161-75,239-92,433-92c141,0,177,4,250,23c291,79,523,274,652,548
		c67,145,82,215,82,409c1,148-2,181-22,255c-97,353-363,616-720,712C2703,3558,2486,3565,2383,3546z M2189,3164c23-17,65-99,122-241
		c33-82,31-93-25-168c-50-65-49-102,5-172c99-127,356-333,416-333c34,0,60,16,120,71c28,27,60,49,70,49s81-18,158-40
		c108-31,145-45,163-65c35-41,29-83-21-152c-91-123-157-158-302-158c-119,0-207,24-332,90c-117,62-203,126-322,240
		c-215,206-321,400-321,585c0,102,61,212,154,281C2119,3184,2155,3188,2189,3164z"/>
</g>
</svg>
