<?xml version="1.0" encoding="utf-8"?>
<!-- Generator: Adobe Illustrator 26.0.2, SVG Export Plug-In . SVG Version: 6.00 Build 0)  -->
<svg version="1.1" id="Capa_1" xmlns="http://www.w3.org/2000/svg" xmlns:xlink="http://www.w3.org/1999/xlink" x="0px" y="0px"
	 viewBox="0 0 512 512" style="enable-background:new 0 0 512 512;" xml:space="preserve">
<style type="text/css">
	.st0{fill:#5B5B5B;}
</style>
<g transform="translate(0.000000,512.000000) scale(0.100000,-0.100000)">
	<path class="st0" d="M2315,5109c-800-83-1501-518-1927-1196c-604-960-491-2230,272-3065c423-463,951-740,1585-830
		c118-17,511-16,635,0c579,80,1097,337,1491,739c130,132,157,163,243,277c256,341,423,757,488,1211c17,118,17,512,0,630
		c-43,303-122,561-247,814c-134,268-270,459-483,674c-395,400-889,649-1457,733C2792,5114,2437,5122,2315,5109z M3115,3670
		c616-22,747-46,863-154c96-90,136-209,163-491c17-174,18-730,1-910c-26-272-51-375-111-455c-83-110-165-152-349-175
		c-493-62-1923-56-2304,10c-196,34-320,150-361,340c-48,218-69,677-47,1030c25,411,55,528,161,640c91,96,177,123,464,145
		C1947,3678,2651,3687,3115,3670z"/>
	<path class="st0" d="M2240,2560v-480l48,27c615,352,781,449,781,453s-166,101-781,453l-48,27V2560z"/>
</g>
</svg>
